<svg xmlns="http://www.w3.org/2000/svg" viewBox="0 0 900 520" role="img" aria-labelledby="title desc"><title id="title">Academician skill alignment</title><desc id="desc">An academician aligns teaching with current industry needs.</desc><rect width="900" height="520" rx="28" fill="#f8fafc"/><rect x="24" y="24" width="410" height="472" rx="20" fill="#fef3c7"/><rect x="466" y="24" width="410" height="472" rx="20" fill="#dbeafe"/><text x="54" y="78" font-family="sans-serif" font-size="24" font-weight="700" fill="#92400e">TODAY</text><text x="496" y="78" font-family="sans-serif" font-size="24" font-weight="700" fill="#1e3a8a">ALIGNED</text><path d="M102 358h250M126 358V208h52v150M204 358V166h52v192M282 358V242h52v116" fill="none" stroke="#d97706" stroke-width="22"/><path d="M540 358h250M564 358V278h52v80M642 358V204h52v154M720 358V144h52v214" fill="none" stroke="#2563eb" stroke-width="22"/><path d="M100 420h250M540 420h250" stroke="#f59e0b" stroke-width="12" stroke-linecap="round"/><circle cx="744" cy="130" r="28" fill="#10b981"/><path d="M730 130l10 10 20-24" fill="none" stroke="white" stroke-width="8" stroke-linecap="round" stroke-linejoin="round"/></svg>
